<svg xmlns="http://www.w3.org/2000/svg" viewBox="0 0 640 400"><!-- SPDX-License-Identifier: GPL-3.0-only; original artwork --><rect width="640" height="400" fill="#f0f1df"/><circle cx="511" cy="60" r="110" fill="#e2e6c9"/><path d="M70 340H580" stroke="#c3cbb5" stroke-width="2"/><rect x="225" y="319" width="85" height="25" rx="4" fill="#74806b"/><rect x="119" y="267" width="317" height="51" rx="8" fill="#548b82"/><rect x="236" y="215" width="85" height="51" rx="7" fill="#7396ad"/><rect x="194" y="163" width="300" height="51" rx="7" fill="#bf7e76"/><rect x="215" y="111" width="213" height="51" rx="7" fill="#548b82"/><rect x="319" y="59" width="170" height="51" rx="7" fill="#c9a064"/><rect x="432" y="22" width="57" height="36" rx="7" fill="#d2b651"/><path d="M278 274v36m0-88v36m23-88v36m-43-88v36m143-88v36m57-81v21" stroke="#fffbe5" stroke-width="3"/><path d="M462 14v335" stroke="#bca851" stroke-dasharray="6 9" stroke-width="2" opacity=".5"/><g fill="#3e6645" stroke="#f5f6e8" stroke-width="2"><circle cx="286" cy="319" r="6"/><circle cx="294" cy="267" r="6"/><circle cx="303" cy="215" r="6"/><circle cx="347" cy="163" r="6"/><circle cx="430" cy="111" r="6"/><circle cx="460" cy="59" r="6"/></g></svg>
