<svg xmlns="http://www.w3.org/2000/svg" viewBox="0 0 640 400"><rect width="640" height="400" fill="#eef4e8"/><path d="M80 95H260V195H440V305H565" fill="none" stroke="#c2d3b8" stroke-width="12" stroke-linecap="round"/><g fill="#3c7374"><rect x="50" y="65" width="62" height="62" rx="16"/><rect x="229" y="164" width="62" height="62" rx="16"/></g><g fill="#b36348"><rect x="229" y="65" width="62" height="62" rx="16"/><rect x="409" y="164" width="62" height="62" rx="16"/></g><g fill="#5976a4"><rect x="409" y="274" width="62" height="62" rx="16"/><rect x="530" y="274" width="62" height="62" rx="16"/></g><g fill="#d4a344"><circle cx="159" cy="95" r="11"/><circle cx="348" cy="195" r="11"/><circle cx="493" cy="305" r="11"/></g><g stroke="#fff" stroke-width="5" fill="none" stroke-linecap="round"><path d="M71 95H94M84 85L94 95L84 105M250 85V105M240 95H260M428 195H450M440 185L450 195L440 205M430 295L449 314M449 295L430 314"/></g></svg>
