<!-- SPDX-License-Identifier: GPL-3.0-only; original programmatic artwork -->
<svg xmlns="http://www.w3.org/2000/svg" viewBox="0 0 600 360"><rect width="600" height="360" fill="#e8dfc2"/><path d="M100 310V75h395v235" fill="#7e7d62"/><path d="M140 270V113h315v157H330v40H220v-40Z" fill="#eee6cd"/><path d="M160 270h78v-45h72v45h145" stroke="#caa569" stroke-width="22" fill="none"/><path d="m305 103 35 8 12 32-16 32-40 4-20-26 4-32Z" fill="#938875" stroke="#736959" stroke-width="5"/><path d="m405 151 16 28 31 6-25 21 4 33-27-17-29 13 8-32-22-24 33-1Z" fill="#61a791"/><g transform="translate(182 170)"><rect x="0" y="15" width="49" height="61" rx="15" fill="#c99c49"/><path d="M-7 24h64M5 24V13Q25-8 45 13v11" stroke="#eed276" stroke-width="12" fill="#e4ba5d"/><circle cx="17" cy="41" r="4" fill="#62543b"/><circle cx="34" cy="41" r="4" fill="#62543b"/></g><path d="M320 191v34m-10-12 10 12 10-12" stroke="#a88a58" stroke-width="5" fill="none" stroke-linecap="round" stroke-linejoin="round"/></svg>
