<svg xmlns="http://www.w3.org/2000/svg" width="640" height="400" viewBox="0 0 640 400"><rect width="640" height="400" fill="#e9efe7"/><g transform="translate(320 211)"><path d="M0-145 126-73 126 73 0 145-126 73-126-73Z" fill="none" stroke="#ced9ce" stroke-width="8"/><path d="M0-57 49-28 49 28 0 57-49 28-49-28Z" fill="#345747"/><g fill="#2ecc71"><path d="M53-31 76-44 76 44 53 31Z"/><path d="M80-46 102-59 102 59 80 46Z"/></g><path d="M4-62 4-88 76-46 54-34Z" fill="#f1c40f"/><path d="M-54 34-77 47-4 90-4 63Z" fill="#3498db"/><path d="M-53-31-76-44-76 44-53 31Z" fill="#e74c3c"/><path d="M4 96 4 119 104 61 82 49Z" fill="#3498db"/><path d="M-4-113-4-136-118-70-97-58Z" fill="#f1c40f"/><path d="M157-45 180-58 180 58 157 45Z" fill="#2ecc71"/><path d="M-138 70-160 83-42 152-42 126Z" fill="#e74c3c"/><path d="M-21-11 0-23 21-11 21 13 0 25-21 13Z" fill="none" stroke="#d2e1ce" stroke-width="2"/></g><text x="34" y="40" font-family="system-ui,sans-serif" fill="#4e7058" font-size="13" letter-spacing="4">HEXTRIS</text><text x="604" y="371" text-anchor="end" font-family="system-ui,sans-serif" fill="#67816b" font-size="12">六向彩环 · 连色消除</text></svg>
