<!-- SPDX-License-Identifier: GPL-3.0-only. Original Playgarden artwork. -->
<svg xmlns="http://www.w3.org/2000/svg" viewBox="0 0 640 400" fill="none">
<defs><linearGradient id="bg" x1="60" y1="20" x2="580" y2="390" gradientUnits="userSpaceOnUse"><stop stop-color="#ebf0db"/><stop offset="1" stop-color="#cbdcc5"/></linearGradient><pattern id="hatch" width="8" height="8" patternUnits="userSpaceOnUse" patternTransform="rotate(35)"><rect width="8" height="8" fill="#fffdf7"/><path d="M0 0V8" stroke="#24796d" stroke-width="3"/></pattern></defs>
<rect width="640" height="400" fill="url(#bg)"/><circle cx="544" cy="60" r="150" fill="#f4f4dd" opacity=".65"/><circle cx="86" cy="350" r="140" fill="#a8c5ad" opacity=".45"/>
<path d="M65 300C180 360 494 350 580 252" stroke="#98b69d" stroke-width="2" stroke-dasharray="6 9"/>
<g transform="translate(142 73) rotate(-12 80 125)"><rect x="0" y="7" width="165" height="250" rx="22" fill="#8eaa91" opacity=".35"/><rect width="165" height="250" rx="22" fill="#fffdf7" stroke="#aebca5" stroke-width="3"/><circle cx="83" cy="120" r="36" fill="#b53b41"/><path d="M28 215H76" stroke="#c8cfbc" stroke-width="6" stroke-linecap="round"/><circle cx="29" cy="30" r="5" fill="#b53b41"/></g>
<g transform="translate(258 62) rotate(3 80 125)"><rect x="0" y="7" width="165" height="250" rx="22" fill="#8eaa91" opacity=".35"/><rect width="165" height="250" rx="22" fill="#fffdf7" stroke="#aebca5" stroke-width="3"/><path d="M82 48L108 95H56Z M82 128L108 175H56Z" fill="#fffdf7" stroke="#3658a1" stroke-width="5" stroke-linejoin="round"/><path d="M28 215H88" stroke="#c8cfbc" stroke-width="6" stroke-linecap="round"/><circle cx="29" cy="30" r="5" fill="#3658a1"/></g>
<g transform="translate(371 90) rotate(15 80 125)"><rect x="0" y="7" width="165" height="250" rx="22" fill="#8eaa91" opacity=".35"/><rect width="165" height="250" rx="22" fill="#fffdf7" stroke="#aebca5" stroke-width="3"/><path d="M83 43L107 68L83 93L59 68Z M83 101L107 126L83 151L59 126Z M83 159L107 184L83 209L59 184Z" fill="url(#hatch)" stroke="#24796d" stroke-width="4" stroke-linejoin="round"/><circle cx="29" cy="30" r="5" fill="#24796d"/></g>
<path d="M91 84V106M80 95H102 M551 331V351M541 341H561" stroke="#6c8e64" stroke-width="4" stroke-linecap="round"/><circle cx="561" cy="148" r="7" stroke="#86a47d" stroke-width="3"/><circle cx="82" cy="226" r="5" fill="#86a47d"/>
</svg>
