<!-- SPDX-License-Identifier: GPL-3.0-only. Original Playgarden geometric illustration. -->
<svg xmlns="http://www.w3.org/2000/svg" viewBox="0 0 640 400" role="img" aria-labelledby="title desc">
  <title id="title">星门守望</title><desc id="desc">奶油色小飞船在星门下方发射光束，面对三台圆角机器人。</desc>
  <rect width="640" height="400" fill="#102b3c"/>
  <path d="M80 286Q320-78 560 286" fill="none" stroke="#284b5f" stroke-width="34"/>
  <path d="M80 286Q320-78 560 286" fill="none" stroke="#789b9d" stroke-width="3" stroke-dasharray="5 20"/>
  <g fill="#adc8cc"><circle cx="55" cy="65" r="3"/><circle cx="151" cy="39" r="2"/><circle cx="407" cy="37" r="2"/><circle cx="582" cy="184" r="3"/><circle cx="70" cy="264" r="2"/><circle cx="493" cy="292" r="2"/></g>
  <circle cx="537" cy="60" r="25" fill="#9cae98"/>
  <g fill="#8cb7bb" stroke="#e1f1e6" stroke-width="3">
    <path d="M159 120l12-13h31l12 13v30l-13 9h-30l-12-9z"/>
    <path d="M292 102l12-13h31l12 13v30l-13 9h-30l-12-9z"/>
    <path d="M425 120l12-13h31l12 13v30l-13 9h-30l-12-9z"/>
  </g>
  <g fill="#193b4b"><rect x="168" y="121" width="37" height="17" rx="6"/><rect x="301" y="103" width="37" height="17" rx="6"/><rect x="434" y="121" width="37" height="17" rx="6"/></g>
  <g fill="#f4e4ac"><circle cx="179" cy="129" r="3"/><circle cx="194" cy="129" r="3"/><circle cx="312" cy="111" r="3"/><circle cx="327" cy="111" r="3"/><circle cx="445" cy="129" r="3"/><circle cx="460" cy="129" r="3"/></g>
  <circle cx="453" cy="132" r="43" fill="none" stroke="#efbc91" stroke-width="3" stroke-dasharray="6 7"/>
  <path d="M443 222l-7-14q7-13 14 0z" fill="#ffbf90"/>
  <rect x="313" y="195" width="11" height="29" rx="5" fill="#edffc7"/>
  <rect x="313" y="251" width="11" height="29" rx="5" fill="#edffc7"/>
  <path d="M318 303l15 26 27 24v13l-42-14-42 14v-13l27-24z" fill="#f1e7b5" stroke="#fff5ce" stroke-width="3"/>
  <path d="M318 321l9 19h-18z" fill="#347485"/>
  <g fill="#559395" stroke="#b4e1d6" stroke-width="2"><path d="M112 310v-14l16-13h57l16 13v14z"/><path d="M438 310v-14l16-13h57l16 13v14z"/></g>
  <path d="M137 297h37m289 0h37" stroke="#e5f5d9" stroke-width="6" stroke-dasharray="6 5"/>
</svg>
